{
  "accessors": [
    {
      "bufferView": 2,
      "componentType": 5126,
      "count": 13315,
      "max": [
        9.567970275878906,
        5.269250392913818,
        10.231950759887695
      ],
      "min": [
        0.0,
        0.0,
        0.0
      ],
      "type": "VEC3"
    },
    {
      "bufferView": 2,
      "byteOffset": 159780,
      "componentType": 5126,
      "count": 13315,
      "max": [
        0.999454915523529,
        0.9999992847442627,
        0.9991418123245239
      ],
      "min": [
        -0.9999954700469971,
        -0.9999979734420776,
        -0.9992997646331787
      ],
      "type": "VEC3"
    },
    {
      "bufferView": 3,
      "componentType": 5126,
      "count": 13315,
      "max": [
        0.989781379699707,
        0.9995957016944885,
        0.9860486388206482,
        1.0
      ],
      "min": [
        -0.999881386756897,
        -0.953588604927063,
        -0.998591423034668,
        1.0
      ],
      "type": "VEC4"
    },
    {
      "bufferView": 1,
      "componentType": 5126,
      "count": 13315,
      "max": [
        0.8989099860191345,
        0.998960018157959
      ],
      "min": [
        0.013829999603331089,
        0.01295000035315752
      ],
      "type": "VEC2"
    },
    {
      "bufferView": 0,
      "componentType": 5125,
      "count": 70992,
      "type": "SCALAR"
    }
  ],
  "asset": {
    "extras": {
      "author": "Francesco Coldesina (https://sketchfab.com/topfrank2013)",
      "license": "CC-BY-4.0 (http://creativecommons.org/licenses/by/4.0/)",
      "source": "https://sketchfab.com/3d-models/bread-35c647c3231b4d7ba3dfdc1d0ba4d036",
      "title": "Bread"
    },
    "generator": "Sketchfab-12.65.0",
    "version": "2.0"
  },
  "bufferViews": [
    {
      "buffer": 0,
      "byteLength": 283968,
      "name": "floatBufferViews",
      "target": 34963
    },
    {
      "buffer": 0,
      "byteLength": 106520,
      "byteOffset": 283968,
      "byteStride": 8,
      "name": "floatBufferViews",
      "target": 34962
    },
    {
      "buffer": 0,
      "byteLength": 319560,
      "byteOffset": 390488,
      "byteStride": 12,
      "name": "floatBufferViews",
      "target": 34962
    },
    {
      "buffer": 0,
      "byteLength": 213040,
      "byteOffset": 710048,
      "byteStride": 16,
      "name": "floatBufferViews",
      "target": 34962
    }
  ],
  "buffers": [
    {
      "byteLength": 923088,
      "uri": "scene.bin"
    }
  ],
  "images": [
    {
      "uri": "textures/Material__159_baseColor.jpeg"
    },
    {
      "uri": "textures/Material__159_normal.png"
    }
  ],
  "materials": [
    {
      "doubleSided": true,
      "name": "Material__159",
      "normalTexture": {
        "index": 1,
        "scale": 0.84
      },
      "pbrMetallicRoughness": {
        "baseColorTexture": {
          "index": 0
        },
        "metallicFactor": 0.0,
        "roughnessFactor": 0.84
      }
    }
  ],
  "meshes": [
    {
      "name": "Object_0",
      "primitives": [
        {
          "attributes": {
            "NORMAL": 1,
            "POSITION": 0,
            "TANGENT": 2,
            "TEXCOORD_0": 3
          },
          "indices": 4,
          "material": 0,
          "mode": 4
        }
      ]
    }
  ],
  "nodes": [
    {
      "children": [
        1
      ],
      "matrix": [
        1.0,
        0.0,
        0.0,
        0.0,
        0.0,
        -0.9895477294921875,
        -0.1442055553197863,
        0.0,
        0.0,
        0.1442055553197863,
        -0.9895477294921875,
        0.0,
        0.0,
        -2.5906062126159672,
        2.3205230236053462,
        1.0
      ],
      "name": "Sketchfab_model"
    },
    {
      "children": [
        2
      ],
      "matrix": [
        1.0,
        0.0,
        0.0,
        0.0,
        0.0,
        1.0,
        0.0,
        0.0,
        0.0,
        0.0,
        1.0,
        0.0,
        -5.02731990814209,
        -5.292640209197998,
        -5.069680213928223,
        1.0
      ],
      "name": "Bread D.obj.cleaner.gles"
    },
    {
      "mesh": 0,
      "name": "Object_2"
    }
  ],
  "samplers": [
    {
      "magFilter": 9729,
      "minFilter": 9987,
      "wrapS": 10497,
      "wrapT": 10497
    }
  ],
  "scene": 0,
  "scenes": [
    {
      "name": "Sketchfab_Scene",
      "nodes": [
        0
      ]
    }
  ],
  "textures": [
    {
      "sampler": 0,
      "source": 0
    },
    {
      "sampler": 0,
      "source": 1
    }
  ]
}
