{
  "accessors": [
    {
      "bufferView": 1,
      "componentType": 5126,
      "count": 18560,
      "max": [
        104.40503692626953,
        54.641544342041016,
        50.69302749633789
      ],
      "min": [
        -24.69721221923828,
        -55.345924377441406,
        -50.693023681640625
      ],
      "type": "VEC3"
    },
    {
      "bufferView": 1,
      "byteOffset": 222720,
      "componentType": 5126,
      "count": 18560,
      "max": [
        1.0,
        1.0,
        1.0
      ],
      "min": [
        -1.0,
        -1.0,
        -1.0
      ],
      "type": "VEC3"
    },
    {
      "bufferView": 0,
      "componentType": 5125,
      "count": 111360,
      "type": "SCALAR"
    },
    {
      "bufferView": 1,
      "byteOffset": 445440,
      "componentType": 5126,
      "count": 6927,
      "max": [
        71.81371307373047,
        31.124866485595703,
        45.81791687011719
      ],
      "min": [
        -19.82209587097168,
        -50.345947265625,
        -45.81791305541992
      ],
      "type": "VEC3"
    },
    {
      "bufferView": 1,
      "byteOffset": 528564,
      "componentType": 5126,
      "count": 6927,
      "max": [
        1.0,
        1.0,
        1.0
      ],
      "min": [
        -1.0,
        -1.0,
        -1.0
      ],
      "type": "VEC3"
    },
    {
      "bufferView": 0,
      "byteOffset": 445440,
      "componentType": 5125,
      "count": 39546,
      "type": "SCALAR"
    }
  ],
  "asset": {
    "extras": {
      "author": "Kafu Design (https://sketchfab.com/kufatschgu)",
      "license": "CC-BY-4.0 (http://creativecommons.org/licenses/by/4.0/)",
      "source": "https://sketchfab.com/3d-models/coffee-mug-kaffeetasse-bfac941dac7647678ad1cc26a102ad05",
      "title": "Coffee Mug / Kaffeetasse"
    },
    "generator": "Sketchfab-12.68.0",
    "version": "2.0"
  },
  "bufferViews": [
    {
      "buffer": 0,
      "byteLength": 603624,
      "name": "floatBufferViews",
      "target": 34963
    },
    {
      "buffer": 0,
      "byteLength": 611688,
      "byteOffset": 603624,
      "byteStride": 12,
      "name": "floatBufferViews",
      "target": 34962
    }
  ],
  "buffers": [
    {
      "byteLength": 1215312,
      "uri": "scene.bin"
    }
  ],
  "extensionsUsed": [
    "KHR_materials_transmission"
  ],
  "materials": [
    {
      "doubleSided": true,
      "name": "02_-_Default",
      "pbrMetallicRoughness": {
        "metallicFactor": 0.0,
        "roughnessFactor": 0.13520832061767574
      }
    },
    {
      "alphaMode": "BLEND",
      "doubleSided": true,
      "extensions": {
        "KHR_materials_transmission": {
          "transmissionFactor": 1.0
        }
      },
      "name": "09_-_Default",
      "pbrMetallicRoughness": {
        "baseColorFactor": [
          0.0352941,
          0.00784314,
          0.0,
          0.25
        ],
        "metallicFactor": 0.0,
        "roughnessFactor": 0.11020832061767583
      }
    }
  ],
  "meshes": [
    {
      "name": "Rectangle001_02 - Default_0",
      "primitives": [
        {
          "attributes": {
            "NORMAL": 1,
            "POSITION": 0
          },
          "indices": 2,
          "material": 0,
          "mode": 4
        }
      ]
    },
    {
      "name": "Rectangle002_09 - Default_0",
      "primitives": [
        {
          "attributes": {
            "NORMAL": 4,
            "POSITION": 3
          },
          "indices": 5,
          "material": 1,
          "mode": 4
        }
      ]
    }
  ],
  "nodes": [
    {
      "children": [
        1
      ],
      "matrix": [
        1.0,
        0.0,
        0.0,
        0.0,
        0.0,
        2.220446049250313e-16,
        -1.0,
        0.0,
        0.0,
        1.0,
        2.220446049250313e-16,
        0.0,
        0.0,
        0.0,
        0.0,
        1.0
      ],
      "name": "Sketchfab_model"
    },
    {
      "children": [
        2
      ],
      "matrix": [
        1.0,
        0.0,
        0.0,
        0.0,
        0.0,
        0.0,
        1.0,
        0.0,
        0.0,
        -1.0,
        0.0,
        0.0,
        0.0,
        0.0,
        0.0,
        1.0
      ],
      "name": "657c156342d14d918dfc644f1cc0b3ad.fbx"
    },
    {
      "children": [
        3,
        6
      ],
      "name": "RootNode"
    },
    {
      "children": [
        4
      ],
      "matrix": [
        0.9762960027860579,
        1.3253110935381761e-17,
        -0.21643963348695097,
        0.0,
        3.52624932271226e-08,
        0.9999999999999867,
        1.5905881304885366e-07,
        0.0,
        0.21643963348694809,
        -1.629206844974052e-07,
        0.9762960027860449,
        0.0,
        0.028470993041992188,
        56.0,
        -2.290953489136882e-07,
        1.0
      ],
      "name": "Rectangle001"
    },
    {
      "children": [
        5
      ],
      "matrix": [
        1.0,
        0.0,
        -0.0,
        0.0,
        0.0,
        1.0,
        0.0,
        0.0,
        0.0,
        0.0,
        1.0,
        0.0,
        -25.99580955505371,
        0.0,
        0.0,
        1.0
      ],
      "name": "Object_4"
    },
    {
      "mesh": 0,
      "name": "Rectangle001_02 - Default_0"
    },
    {
      "children": [
        7
      ],
      "matrix": [
        0.9905869725867705,
        -3.4517180009354443e-15,
        -0.2196078627945875,
        0.0,
        3.475378299947223e-08,
        0.9999999999999871,
        1.5676415588028415e-07,
        0.0,
        0.21960786279458466,
        -1.629207345921122e-07,
        0.9905869725867578,
        0.0,
        0.028470993041992188,
        56.32699966430664,
        -6.45934596832376e-06,
        1.0
      ],
      "name": "Rectangle002"
    },
    {
      "children": [
        8
      ],
      "matrix": [
        1.0,
        0.0,
        -0.0,
        0.0,
        0.0,
        1.0,
        0.0,
        0.0,
        0.0,
        0.0,
        1.0,
        0.0,
        -25.99580955505371,
        0.0,
        0.0,
        1.0
      ],
      "name": "Object_7"
    },
    {
      "mesh": 1,
      "name": "Rectangle002_09 - Default_0"
    }
  ],
  "scene": 0,
  "scenes": [
    {
      "name": "Sketchfab_Scene",
      "nodes": [
        0
      ]
    }
  ]
}
