{
  "accessors": [
    {
      "bufferView": 2,
      "componentType": 5126,
      "count": 2699,
      "max": [
        0.9999988079071045,
        1.5779509544372559,
        0.9999957084655762
      ],
      "min": [
        -1.0000011920928955,
        -3.841865062713623,
        -1.0000042915344238
      ],
      "type": "VEC3"
    },
    {
      "bufferView": 2,
      "byteOffset": 32388,
      "componentType": 5126,
      "count": 2699,
      "max": [
        1.0,
        0.9899571537971497,
        1.0
      ],
      "min": [
        -1.0,
        -0.9949440956115723,
        -1.0
      ],
      "type": "VEC3"
    },
    {
      "bufferView": 1,
      "componentType": 5126,
      "count": 2699,
      "max": [
        1.0,
        0.9900000095367432
      ],
      "min": [
        0.0,
        0.0
      ],
      "type": "VEC2"
    },
    {
      "bufferView": 0,
      "componentType": 5125,
      "count": 15540,
      "type": "SCALAR"
    },
    {
      "bufferView": 2,
      "byteOffset": 64776,
      "componentType": 5126,
      "count": 2450,
      "max": [
        3.920713186264038,
        -2.784860849380493,
        0.784608006477356
      ],
      "min": [
        2.1022303104400635,
        -3.815330743789673,
        -1.0328871011734009
      ],
      "type": "VEC3"
    },
    {
      "bufferView": 2,
      "byteOffset": 94176,
      "componentType": 5126,
      "count": 2450,
      "max": [
        1.0,
        1.0,
        1.0
      ],
      "min": [
        -1.0,
        -0.9579588770866394,
        -0.9999825954437256
      ],
      "type": "VEC3"
    },
    {
      "bufferView": 1,
      "byteOffset": 21592,
      "componentType": 5126,
      "count": 2450,
      "max": [
        1.0,
        0.9900000095367432
      ],
      "min": [
        0.0,
        0.0
      ],
      "type": "VEC2"
    },
    {
      "bufferView": 0,
      "byteOffset": 62160,
      "componentType": 5125,
      "count": 13683,
      "type": "SCALAR"
    }
  ],
  "asset": {
    "extras": {
      "author": "cesarisaac (https://sketchfab.com/cesarisaac)",
      "license": "CC-BY-4.0 (http://creativecommons.org/licenses/by/4.0/)",
      "source": "https://sketchfab.com/3d-models/tasse-grande-0d119eb3a2b7425cb7d595c4ef12da0f",
      "title": "TASSE GRANDE"
    },
    "generator": "Sketchfab-15.8.0",
    "version": "2.0"
  },
  "bufferViews": [
    {
      "buffer": 0,
      "byteLength": 116892,
      "name": "floatBufferViews",
      "target": 34963
    },
    {
      "buffer": 0,
      "byteLength": 41192,
      "byteOffset": 116892,
      "byteStride": 8,
      "name": "floatBufferViews",
      "target": 34962
    },
    {
      "buffer": 0,
      "byteLength": 123576,
      "byteOffset": 158084,
      "byteStride": 12,
      "name": "floatBufferViews",
      "target": 34962
    }
  ],
  "buffers": [
    {
      "byteLength": 281660,
      "uri": "scene.bin"
    }
  ],
  "materials": [
    {
      "doubleSided": true,
      "name": "Material.001",
      "pbrMetallicRoughness": {
        "baseColorFactor": [
          0.584078,
          0.0781874,
          0.0295568,
          1.0
        ],
        "metallicFactor": 0.0,
        "roughnessFactor": 0.5
      }
    },
    {
      "doubleSided": true,
      "name": "Material.002",
      "pbrMetallicRoughness": {
        "baseColorFactor": [
          0.012983,
          0.0168074,
          0.0168074,
          1.0
        ],
        "metallicFactor": 0.0,
        "roughnessFactor": 0.5
      }
    }
  ],
  "meshes": [
    {
      "name": "Object_0",
      "primitives": [
        {
          "attributes": {
            "NORMAL": 1,
            "POSITION": 0,
            "TEXCOORD_0": 2
          },
          "indices": 3,
          "material": 0,
          "mode": 4
        }
      ]
    },
    {
      "name": "Object_1",
      "primitives": [
        {
          "attributes": {
            "NORMAL": 5,
            "POSITION": 4,
            "TEXCOORD_0": 6
          },
          "indices": 7,
          "material": 1,
          "mode": 4
        }
      ]
    }
  ],
  "nodes": [
    {
      "children": [
        1
      ],
      "matrix": [
        1.0,
        0.0,
        0.0,
        0.0,
        0.0,
        2.220446049250313e-16,
        -1.0,
        0.0,
        0.0,
        1.0,
        2.220446049250313e-16,
        0.0,
        0.0,
        0.0,
        0.0,
        1.0
      ],
      "name": "Sketchfab_model"
    },
    {
      "children": [
        2
      ],
      "name": "root"
    },
    {
      "children": [
        3
      ],
      "matrix": [
        1.0,
        0.0,
        0.0,
        0.0,
        0.0,
        2.220446049250313e-16,
        1.0,
        0.0,
        0.0,
        -1.0,
        2.220446049250313e-16,
        0.0,
        0.0,
        0.0,
        0.0,
        1.0
      ],
      "name": "GLTF_SceneRootNode"
    },
    {
      "children": [
        4,
        5
      ],
      "matrix": [
        0.49173280596733093,
        0.0,
        0.0,
        0.0,
        0.0,
        0.5388074517250061,
        0.0,
        0.0,
        0.0,
        0.0,
        0.492000013589859,
        0.0,
        5.315249443054199,
        2.067091464996338,
        9.428269386291504,
        1.0
      ],
      "name": "Cylinder_0"
    },
    {
      "mesh": 0,
      "name": "Object_4"
    },
    {
      "mesh": 1,
      "name": "Object_5"
    }
  ],
  "scene": 0,
  "scenes": [
    {
      "name": "Sketchfab_Scene",
      "nodes": [
        0
      ]
    }
  ]
}
